#!OML:ASF X:\für Bonn\!DataBase\2005_08_10_Bjorn_Final\c3d\bjorn.ASF
:FULLY-SPECIFIED
:DEGREES
278
root 4.95131 18.9436 1.25956 509.194 81.3364 -215.739
lowerback 0.270872 0.0977186 2.88084
upperback 10.6813 0.689053 -2.51433
thorax 11.3426 0.970703 -4.22218
lowerneck 3.10016 -2.03033 2.45468
upperneck 14.5251 -2.37468 0.973287
head 4.19518 -0.810541 -0.150399
rclavicle 9.14409e-015 2.68359e-014
rhumerus -24.6123 -17.616 -76.2993
rradius 30.5141
rwrist 6.80684
rhand -9.72306 14.9033
rfingers 7.12502
rthumb 16.2503 -14.4357
lclavicle 9.14409e-015 2.68359e-014
lhumerus -13.0796 3.58573 66.5402
lradius 46.8867
lwrist -18.2431
lhand -32.7669 -17.3577
lfingers 7.12502
lthumb -5.98915 12.5376
rfemur -30.1528 -9.86886 11.8248
rtibia 40.5596
rfoot -11.2086 9.2284
rtoes -12.6941
lfemur 0.472601 -4.08493 -12.0431
ltibia 39.3408
lfoot -6.8338 -11.7927
ltoes -23.3582
279
root 5.02717 18.9707 1.28324 507.939 81.5028 -216.893
lowerback 0.194175 0.128578 3.19437
upperback 10.6485 0.694278 -2.42791
thorax 11.358 0.994459 -4.30475
lowerneck 3.08413 -1.98232 2.50238
upperneck 14.6209 -2.27565 0.675397
head 4.22915 -0.768891 -0.256059
rclavicle 8.54774e-015 -2.78299e-014
rhumerus -24.4158 -17.7637 -76.0974
rradius 30.4985
rwrist 6.90034
rhand -9.70817 14.9275
rfingers 7.12502
rthumb 16.2647 -14.4103
lclavicle 8.54774e-015 -2.78299e-014
lhumerus -13.4676 3.49838 66.5627
lradius 46.8181
lwrist -18.4075
lhand -32.8266 -17.2297
lfingers 7.12502
lthumb -6.04685 12.664
rfemur -29.5689 -9.69849 11.8472
rtibia 40.1159
rfoot -11.2485 9.32596
rtoes -12.5018
lfemur -0.247994 -3.87049 -12.1192
ltibia 41.0973
lfoot -7.08223 -11.2365
ltoes -23.004
280
root 5.0995 18.9949 1.30588 506.548 81.6428 -218.173
lowerback 0.13895 0.163787 3.497
upperback 10.6123 0.70813 -2.35585
thorax 11.358 1.02209 -4.39591
lowerneck 3.06346 -1.94753 2.54044
upperneck 14.7225 -2.19694 0.408819
head 4.26706 -0.736221 -0.350387
rclavicle 3.37934e-015 1.55052e-014
rhumerus -24.2032 -17.8319 -75.9382
rradius 30.475
rwrist 6.87804
rhand -9.7658 14.8834
rfingers 7.12502
rthumb 16.2092 -14.4589
lclavicle 3.37934e-015 1.55052e-014
lhumerus -13.8279 3.41584 66.5778
lradius 46.7264
lwrist -18.6119
lhand -32.8546 -17.1234
lfingers 7.12502
lthumb -6.07388 12.7695
rfemur -29.0043 -9.5739 11.8431
rtibia 39.7173
rfoot -11.292 9.46051
rtoes -12.2825
lfemur -1.00789 -3.6433 -12.2221
ltibia 42.9199
lfoot -7.30592 -10.7005
ltoes -22.5865
281
root 5.16992 19.0193 1.32786 505.039 81.7853 -219.561
lowerback 0.0935299 0.211126 3.80599
upperback 10.5859 0.739722 -2.28726
thorax 11.3664 1.06011 -4.49273
lowerneck 3.09083 -1.91961 2.6165
upperneck 14.7337 -2.12209 0.0909681
head 4.26209 -0.708197 -0.467745
rclavicle 2.5842e-014 -9.54166e-015
rhumerus -23.9285 -17.9657 -75.778
rradius 30.401
rwrist 6.8781
rhand -9.79509 14.8216
rfingers 7.12502
rthumb 16.181 -14.523
lclavicle 2.5842e-014 -9.54166e-015
lhumerus -14.1506 3.30892 66.5943
lradius 46.6561
lwrist -18.7787
lhand -32.8241 -16.9866
lfingers 7.12502
lthumb -6.0444 12.9072
rfemur -28.4424 -9.3826 11.8245
rtibia 39.3233
rfoot -11.3292 9.54279
rtoes -11.9265
lfemur -1.78693 -3.39995 -12.3327
ltibia 44.7645
lfoot -7.54914 -10.1438
ltoes -22.2382
282
root 5.23874 19.0431 1.34876 503.461 81.9356 -221.015
lowerback 0.0495571 0.252078 4.12405
upperback 10.5634 0.76293 -2.22441
thorax 11.3786 1.09564 -4.60176
lowerneck 3.14442 -1.89002 2.66661
upperneck 14.6914 -2.04936 -0.1942
head 4.23367 -0.68267 -0.56914
rclavicle 3.00165e-014 -7.55382e-015
rhumerus -23.6275 -18.022 -75.6528
rradius 30.3275
rwrist 6.80981
rhand -9.8569 14.8145
rfingers 7.12502
rthumb 16.1214 -14.5349
lclavicle 3.00165e-014 -7.55382e-015
lhumerus -14.4476 3.2292 66.5976
lradius 46.549
lwrist -18.89
lhand -32.8718 -16.9096
lfingers 7.12502
lthumb -6.09042 12.9829
rfemur -27.8883 -9.20014 11.8104
rtibia 38.9432
rfoot -11.3695 9.64004
rtoes -11.6246
lfemur -2.5686 -3.15634 -12.4462
ltibia 46.6036
lfoot -7.75093 -9.59201
ltoes -21.5995
283
root 5.30526 19.0664 1.36865 501.934 82.0886 -222.397
lowerback 0.0249069 0.293763 4.46227
upperback 10.5433 0.785521 -2.14668
thorax 11.3826 1.13187 -4.70596
lowerneck 3.21696 -1.85923 2.64512
upperneck 14.6441 -1.97758 -0.44379
head 4.20121 -0.659599 -0.645897
rclavicle 1.05356e-014 -5.56597e-014
rhumerus -23.3373 -18.0442 -75.5173
rradius 30.2901
rwrist 6.67019
rhand -9.8751 14.7687
rfingers 7.12502
rthumb 16.1039 -14.5822
lclavicle 1.05356e-014 -5.56597e-014
lhumerus -14.7523 3.18195 66.6298
lradius 46.4459
lwrist -19.0466
lhand -32.8937 -16.872
lfingers 7.12502
lthumb -6.11154 13.0198
rfemur -27.3232 -8.9937 11.8089
rtibia 38.5657
rfoot -11.3938 9.69319
rtoes -11.3392
lfemur -3.35115 -2.88234 -12.5331
ltibia 48.4372
lfoot -7.94863 -9.0972
ltoes -21.2181
284
root 5.37139 19.0878 1.38828 500.346 82.2399 -223.838
lowerback 0.0145298 0.342269 4.78895
upperback 10.5103 0.817037 -2.05986
thorax 11.3641 1.16941 -4.79282
lowerneck 3.31452 -1.83874 2.62207
upperneck 14.5997 -1.91424 -0.725375
head 4.16495 -0.641295 -0.732957
rclavicle 2.16675e-014 -5.96354e-015
rhumerus -23.0457 -18.0442 -75.3594
rradius 30.2367
rwrist 6.51049
rhand -9.89949 14.7698
rfingers 7.12502
rthumb 16.0804 -14.583
lclavicle 2.16675e-014 -5.96354e-015
lhumerus -15.0381 3.17326 66.6764
lradius 46.2974
lwrist -19.1879
lhand -32.8693 -16.889
lfingers 7.12502
lthumb -6.08807 13.0035
rfemur -26.7558 -8.78188 11.81
rtibia 38.1876
rfoot -11.4499 9.74402
rtoes -11.208
lfemur -4.14107 -2.60659 -12.6299
ltibia 50.2577
lfoot -8.16207 -8.6377
ltoes -20.8172
